<svg width="620" height="40" viewBox="0 0 620 40" fill="none" xmlns="http://www.w3.org/2000/svg">
<path d="M25.7699 11.7244H20.4574C20.3059 10.8532 20.0265 10.0814 19.6193 9.40909C19.2121 8.72727 18.7055 8.14962 18.0994 7.67614C17.4934 7.20265 16.8021 6.84754 16.0256 6.6108C15.2585 6.36458 14.4299 6.24148 13.5398 6.24148C11.9583 6.24148 10.5568 6.6392 9.33523 7.43466C8.11364 8.22064 7.1572 9.37595 6.46591 10.9006C5.77462 12.4157 5.42898 14.267 5.42898 16.4545C5.42898 18.6799 5.77462 20.5549 6.46591 22.0795C7.16667 23.5947 8.12311 24.7405 9.33523 25.517C10.5568 26.2841 11.9536 26.6676 13.5256 26.6676C14.3968 26.6676 15.2112 26.554 15.9688 26.3267C16.7358 26.09 17.4223 25.7443 18.0284 25.2898C18.6439 24.8352 19.16 24.2765 19.5767 23.6136C20.0028 22.9508 20.2964 22.1932 20.4574 21.3409L25.7699 21.3693C25.571 22.7519 25.1402 24.0492 24.4773 25.2614C23.8239 26.4735 22.9669 27.5436 21.9062 28.4716C20.8456 29.3902 19.6051 30.1098 18.1847 30.6307C16.7642 31.142 15.1875 31.3977 13.4545 31.3977C10.8977 31.3977 8.61553 30.8059 6.60795 29.6222C4.60038 28.4384 3.01894 26.7292 1.86364 24.4943C0.708333 22.2595 0.130682 19.5795 0.130682 16.4545C0.130682 13.3201 0.713068 10.6402 1.87784 8.41477C3.04261 6.17992 4.62879 4.47064 6.63636 3.28693C8.64394 2.10322 10.9167 1.51136 13.4545 1.51136C15.0739 1.51136 16.5795 1.73864 17.9716 2.19318C19.3636 2.64773 20.6042 3.31534 21.6932 4.19602C22.7822 5.06723 23.6771 6.13731 24.3778 7.40625C25.0881 8.66572 25.5521 10.1051 25.7699 11.7244ZM39.8857 31.4261C37.755 31.4261 35.9084 30.9574 34.3459 30.0199C32.7834 29.0824 31.5713 27.7708 30.7095 26.0852C29.8572 24.3996 29.4311 22.4299 29.4311 20.1761C29.4311 17.9223 29.8572 15.9479 30.7095 14.2528C31.5713 12.5578 32.7834 11.2415 34.3459 10.304C35.9084 9.36648 37.755 8.89773 39.8857 8.89773C42.0163 8.89773 43.8629 9.36648 45.4254 10.304C46.9879 11.2415 48.1953 12.5578 49.0476 14.2528C49.9093 15.9479 50.3402 17.9223 50.3402 20.1761C50.3402 22.4299 49.9093 24.3996 49.0476 26.0852C48.1953 27.7708 46.9879 29.0824 45.4254 30.0199C43.8629 30.9574 42.0163 31.4261 39.8857 31.4261ZM39.9141 27.3068C41.0694 27.3068 42.0353 26.9896 42.8118 26.3551C43.5883 25.7112 44.166 24.8494 44.5447 23.7699C44.933 22.6903 45.1271 21.4877 45.1271 20.1619C45.1271 18.8267 44.933 17.6193 44.5447 16.5398C44.166 15.4508 43.5883 14.5843 42.8118 13.9403C42.0353 13.2964 41.0694 12.9744 39.9141 12.9744C38.7304 12.9744 37.7455 13.2964 36.9595 13.9403C36.183 14.5843 35.6006 15.4508 35.2124 16.5398C34.8336 17.6193 34.6442 18.8267 34.6442 20.1619C34.6442 21.4877 34.8336 22.6903 35.2124 23.7699C35.6006 24.8494 36.183 25.7112 36.9595 26.3551C37.7455 26.9896 38.7304 27.3068 39.9141 27.3068ZM54.7045 31V9.18182H59.6193V12.8892H59.875C60.3295 11.6392 61.0824 10.6638 62.1335 9.96307C63.1847 9.25284 64.4394 8.89773 65.8977 8.89773C67.375 8.89773 68.6203 9.25758 69.6335 9.97727C70.6563 10.6875 71.3759 11.6581 71.7926 12.8892H72.0199C72.5028 11.6771 73.3172 10.7112 74.4631 9.99148C75.6184 9.26231 76.9867 8.89773 78.5682 8.89773C80.5758 8.89773 82.214 9.5322 83.483 10.8011C84.7519 12.0701 85.3864 13.9214 85.3864 16.3551V31H80.2301V17.1506C80.2301 15.7964 79.8703 14.8068 79.1506 14.1818C78.4309 13.5473 77.5502 13.2301 76.5085 13.2301C75.268 13.2301 74.2973 13.6184 73.5966 14.3949C72.9053 15.1619 72.5597 16.161 72.5597 17.392V31H67.517V16.9375C67.517 15.8106 67.1761 14.911 66.4943 14.2386C65.822 13.5663 64.9413 13.2301 63.8523 13.2301C63.1136 13.2301 62.4413 13.4195 61.8352 13.7983C61.2292 14.1676 60.7462 14.6932 60.3864 15.375C60.0265 16.0473 59.8466 16.8333 59.8466 17.733V31H54.7045ZM90.603 39.1818V9.18182H95.6598V12.7898H95.9581C96.2232 12.2595 96.5973 11.696 97.0803 11.0994C97.5632 10.4934 98.2166 9.97727 99.0405 9.55114C99.8643 9.11553 100.915 8.89773 102.194 8.89773C103.879 8.89773 105.399 9.3286 106.754 10.1903C108.117 11.0426 109.197 12.3068 109.992 13.983C110.797 15.6496 111.2 17.6951 111.2 20.1193C111.2 22.5152 110.807 24.5511 110.021 26.2273C109.235 27.9034 108.165 29.1818 106.81 30.0625C105.456 30.9432 103.922 31.3835 102.208 31.3835C100.958 31.3835 99.9212 31.1752 99.0973 30.7585C98.2734 30.3419 97.6106 29.84 97.1087 29.2528C96.6162 28.6562 96.2327 28.0928 95.9581 27.5625H95.745V39.1818H90.603ZM95.6456 20.0909C95.6456 21.5019 95.8445 22.7377 96.2422 23.7983C96.6494 24.8589 97.2318 25.6875 97.9893 26.2841C98.7564 26.8712 99.6844 27.1648 100.773 27.1648C101.91 27.1648 102.862 26.8617 103.629 26.2557C104.396 25.6402 104.973 24.8021 105.362 23.7415C105.759 22.6714 105.958 21.4545 105.958 20.0909C105.958 18.7367 105.764 17.5341 105.376 16.483C104.987 15.4318 104.41 14.608 103.643 14.0114C102.876 13.4148 101.919 13.1165 100.773 13.1165C99.675 13.1165 98.7422 13.4053 97.9751 13.983C97.2081 14.5606 96.6257 15.3703 96.228 16.4119C95.8397 17.4536 95.6456 18.6799 95.6456 20.0909ZM125.12 31.4261C122.989 31.4261 121.143 30.9574 119.58 30.0199C118.018 29.0824 116.806 27.7708 115.944 26.0852C115.092 24.3996 114.665 22.4299 114.665 20.1761C114.665 17.9223 115.092 15.9479 115.944 14.2528C116.806 12.5578 118.018 11.2415 119.58 10.304C121.143 9.36648 122.989 8.89773 125.12 8.89773C127.251 8.89773 129.097 9.36648 130.66 10.304C132.222 11.2415 133.43 12.5578 134.282 14.2528C135.144 15.9479 135.575 17.9223 135.575 20.1761C135.575 22.4299 135.144 24.3996 134.282 26.0852C133.43 27.7708 132.222 29.0824 130.66 30.0199C129.097 30.9574 127.251 31.4261 125.12 31.4261ZM125.148 27.3068C126.304 27.3068 127.27 26.9896 128.046 26.3551C128.823 25.7112 129.4 24.8494 129.779 23.7699C130.167 22.6903 130.362 21.4877 130.362 20.1619C130.362 18.8267 130.167 17.6193 129.779 16.5398C129.4 15.4508 128.823 14.5843 128.046 13.9403C127.27 13.2964 126.304 12.9744 125.148 12.9744C123.965 12.9744 122.98 13.2964 122.194 13.9403C121.417 14.5843 120.835 15.4508 120.447 16.5398C120.068 17.6193 119.879 18.8267 119.879 20.1619C119.879 21.4877 120.068 22.6903 120.447 23.7699C120.835 24.8494 121.417 25.7112 122.194 26.3551C122.98 26.9896 123.965 27.3068 125.148 27.3068ZM145.081 18.2159V31H139.939V9.18182H144.854V12.8892H145.109C145.611 11.6676 146.411 10.697 147.51 9.97727C148.618 9.25758 149.986 8.89773 151.615 8.89773C153.121 8.89773 154.432 9.2197 155.55 9.86364C156.677 10.5076 157.548 11.4403 158.163 12.6619C158.788 13.8835 159.096 15.3655 159.087 17.108V31H153.945V17.9034C153.945 16.4451 153.566 15.304 152.808 14.4801C152.06 13.6562 151.023 13.2443 149.697 13.2443C148.798 13.2443 147.998 13.4432 147.297 13.8409C146.606 14.2292 146.061 14.7926 145.663 15.5312C145.275 16.2699 145.081 17.1648 145.081 18.2159ZM173.973 31.4261C171.786 31.4261 169.896 30.9716 168.305 30.0625C166.724 29.1439 165.507 27.8466 164.655 26.1705C163.803 24.4848 163.376 22.5009 163.376 20.2188C163.376 17.9744 163.803 16.0047 164.655 14.3097C165.517 12.6051 166.719 11.2794 168.263 10.3324C169.806 9.37595 171.62 8.89773 173.703 8.89773C175.048 8.89773 176.317 9.11553 177.51 9.55114C178.713 9.97727 179.773 10.6402 180.692 11.5398C181.62 12.4394 182.349 13.5852 182.879 14.9773C183.41 16.3598 183.675 18.0076 183.675 19.9205V21.4972H165.791V18.0312H178.746C178.736 17.0464 178.523 16.1705 178.107 15.4034C177.69 14.6269 177.107 14.0161 176.359 13.571C175.621 13.1259 174.759 12.9034 173.774 12.9034C172.723 12.9034 171.8 13.1591 171.004 13.6705C170.209 14.1723 169.589 14.8352 169.143 15.6591C168.708 16.4735 168.485 17.3684 168.476 18.3438V21.3693C168.476 22.6383 168.708 23.7273 169.172 24.6364C169.636 25.536 170.285 26.2273 171.118 26.7102C171.951 27.1837 172.927 27.4205 174.044 27.4205C174.792 27.4205 175.469 27.3163 176.075 27.108C176.681 26.8902 177.207 26.5729 177.652 26.1562C178.097 25.7396 178.433 25.2235 178.661 24.608L183.462 25.1477C183.159 26.4167 182.581 27.5246 181.729 28.4716C180.886 29.4091 179.806 30.1383 178.49 30.6591C177.174 31.1705 175.668 31.4261 173.973 31.4261ZM193.167 18.2159V31H188.025V9.18182H192.94V12.8892H193.195C193.697 11.6676 194.497 10.697 195.596 9.97727C196.704 9.25758 198.072 8.89773 199.701 8.89773C201.207 8.89773 202.518 9.2197 203.636 9.86364C204.763 10.5076 205.634 11.4403 206.249 12.6619C206.874 13.8835 207.182 15.3655 207.173 17.108V31H202.031V17.9034C202.031 16.4451 201.652 15.304 200.894 14.4801C200.146 13.6562 199.109 13.2443 197.783 13.2443C196.884 13.2443 196.084 13.4432 195.383 13.8409C194.692 14.2292 194.147 14.7926 193.749 15.5312C193.361 16.2699 193.167 17.1648 193.167 18.2159ZM223.295 9.18182V13.1591H210.752V9.18182H223.295ZM213.849 3.95455H218.991V24.4375C218.991 25.1288 219.095 25.6591 219.303 26.0284C219.521 26.3883 219.805 26.6345 220.156 26.767C220.506 26.8996 220.894 26.9659 221.32 26.9659C221.642 26.9659 221.936 26.9422 222.201 26.8949C222.476 26.8475 222.684 26.8049 222.826 26.767L223.692 30.7869C223.418 30.8816 223.025 30.9858 222.513 31.0994C222.012 31.2131 221.396 31.2794 220.667 31.2983C219.379 31.3362 218.219 31.142 217.187 30.7159C216.155 30.2803 215.335 29.608 214.729 28.6989C214.133 27.7898 213.839 26.6534 213.849 25.2898V3.95455ZM227.595 31V9.18182H232.737V31H227.595ZM230.18 6.08523C229.366 6.08523 228.665 5.81534 228.078 5.27557C227.491 4.72632 227.197 4.06818 227.197 3.30114C227.197 2.52462 227.491 1.86648 228.078 1.3267C228.665 0.777461 229.366 0.50284 230.18 0.50284C231.004 0.50284 231.705 0.777461 232.283 1.3267C232.87 1.86648 233.163 2.52462 233.163 3.30114C233.163 4.06818 232.87 4.72632 232.283 5.27557C231.705 5.81534 231.004 6.08523 230.18 6.08523ZM237.741 31V27.733L248.991 13.6278V13.4432H238.11V9.18182H255.283V12.6903L244.573 26.554V26.7386H255.653V31H237.741ZM260.486 31V9.18182H265.628V31H260.486ZM263.071 6.08523C262.257 6.08523 261.556 5.81534 260.969 5.27557C260.382 4.72632 260.088 4.06818 260.088 3.30114C260.088 2.52462 260.382 1.86648 260.969 1.3267C261.556 0.777461 262.257 0.50284 263.071 0.50284C263.895 0.50284 264.596 0.777461 265.173 1.3267C265.76 1.86648 266.054 2.52462 266.054 3.30114C266.054 4.06818 265.76 4.72632 265.173 5.27557C264.596 5.81534 263.895 6.08523 263.071 6.08523ZM276.058 18.2159V31H270.915V9.18182H275.83V12.8892H276.086C276.588 11.6676 277.388 10.697 278.487 9.97727C279.594 9.25758 280.963 8.89773 282.592 8.89773C284.097 8.89773 285.409 9.2197 286.526 9.86364C287.653 10.5076 288.524 11.4403 289.14 12.6619C289.765 13.8835 290.073 15.3655 290.063 17.108V31H284.921V17.9034C284.921 16.4451 284.542 15.304 283.785 14.4801C283.037 13.6562 282 13.2443 280.674 13.2443C279.774 13.2443 278.974 13.4432 278.273 13.8409C277.582 14.2292 277.038 14.7926 276.64 15.5312C276.252 16.2699 276.058 17.1648 276.058 18.2159ZM304.779 39.6364C302.933 39.6364 301.346 39.3854 300.021 38.8835C298.695 38.3911 297.629 37.7282 296.825 36.8949C296.02 36.0616 295.461 35.1383 295.148 34.125L299.779 33.0028C299.987 33.429 300.29 33.8504 300.688 34.267C301.086 34.6932 301.621 35.0436 302.293 35.3182C302.975 35.6023 303.832 35.7443 304.864 35.7443C306.323 35.7443 307.53 35.3892 308.487 34.679C309.443 33.9782 309.921 32.8229 309.921 31.2131V27.0795H309.665C309.4 27.6098 309.012 28.1544 308.501 28.7131C307.999 29.2718 307.331 29.7405 306.498 30.1193C305.674 30.4981 304.637 30.6875 303.387 30.6875C301.711 30.6875 300.191 30.2945 298.827 29.5085C297.473 28.7131 296.394 27.5294 295.589 25.9574C294.793 24.3759 294.396 22.3968 294.396 20.0199C294.396 17.6241 294.793 15.6023 295.589 13.9545C296.394 12.2973 297.478 11.0426 298.842 10.1903C300.205 9.3286 301.725 8.89773 303.401 8.89773C304.68 8.89773 305.731 9.11553 306.555 9.55114C307.388 9.97727 308.051 10.4934 308.543 11.0994C309.036 11.696 309.41 12.2595 309.665 12.7898H309.95V9.18182H315.021V31.3551C315.021 33.2206 314.576 34.7642 313.685 35.9858C312.795 37.2074 311.578 38.1212 310.035 38.7273C308.491 39.3333 306.739 39.6364 304.779 39.6364ZM304.822 26.6534C305.911 26.6534 306.839 26.3883 307.606 25.858C308.373 25.3277 308.955 24.5653 309.353 23.571C309.751 22.5767 309.95 21.3835 309.95 19.9915C309.95 18.6184 309.751 17.4157 309.353 16.3835C308.965 15.3513 308.387 14.5511 307.62 13.983C306.862 13.4053 305.93 13.1165 304.822 13.1165C303.676 13.1165 302.719 13.4148 301.952 14.0114C301.185 14.608 300.608 15.4271 300.219 16.4688C299.831 17.5009 299.637 18.6752 299.637 19.9915C299.637 21.3267 299.831 22.4962 300.219 23.5C300.617 24.4943 301.2 25.2708 301.967 25.8295C302.743 26.3788 303.695 26.6534 304.822 26.6534ZM341.107 9.18182V13.1591H328.565V9.18182H341.107ZM331.661 3.95455H336.803V24.4375C336.803 25.1288 336.907 25.6591 337.116 26.0284C337.334 26.3883 337.618 26.6345 337.968 26.767C338.318 26.8996 338.707 26.9659 339.133 26.9659C339.455 26.9659 339.748 26.9422 340.013 26.8949C340.288 26.8475 340.496 26.8049 340.638 26.767L341.505 30.7869C341.23 30.8816 340.837 30.9858 340.326 31.0994C339.824 31.2131 339.209 31.2794 338.479 31.2983C337.192 31.3362 336.031 31.142 334.999 30.7159C333.967 30.2803 333.148 29.608 332.542 28.6989C331.945 27.7898 331.652 26.6534 331.661 25.2898V3.95455ZM351.018 18.2159V31H345.876V1.90909H350.905V12.8892H351.161C351.672 11.6581 352.463 10.6875 353.533 9.97727C354.612 9.25758 355.985 8.89773 357.652 8.89773C359.167 8.89773 360.488 9.21496 361.615 9.84943C362.742 10.4839 363.613 11.4119 364.229 12.6335C364.854 13.8551 365.166 15.3466 365.166 17.108V31H360.024V17.9034C360.024 16.4356 359.645 15.2945 358.888 14.4801C358.14 13.6562 357.089 13.2443 355.734 13.2443C354.825 13.2443 354.011 13.4432 353.291 13.8409C352.581 14.2292 352.022 14.7926 351.615 15.5312C351.217 16.2699 351.018 17.1648 351.018 18.2159ZM380.067 31.4261C377.879 31.4261 375.99 30.9716 374.399 30.0625C372.818 29.1439 371.601 27.8466 370.749 26.1705C369.896 24.4848 369.47 22.5009 369.47 20.2188C369.47 17.9744 369.896 16.0047 370.749 14.3097C371.61 12.6051 372.813 11.2794 374.357 10.3324C375.9 9.37595 377.714 8.89773 379.797 8.89773C381.142 8.89773 382.411 9.11553 383.604 9.55114C384.806 9.97727 385.867 10.6402 386.786 11.5398C387.714 12.4394 388.443 13.5852 388.973 14.9773C389.503 16.3598 389.768 18.0076 389.768 19.9205V21.4972H371.885V18.0312H384.839C384.83 17.0464 384.617 16.1705 384.2 15.4034C383.784 14.6269 383.201 14.0161 382.453 13.571C381.714 13.1259 380.853 12.9034 379.868 12.9034C378.817 12.9034 377.893 13.1591 377.098 13.6705C376.303 14.1723 375.682 14.8352 375.237 15.6591C374.802 16.4735 374.579 17.3684 374.57 18.3438V21.3693C374.57 22.6383 374.802 23.7273 375.266 24.6364C375.73 25.536 376.378 26.2273 377.212 26.7102C378.045 27.1837 379.02 27.4205 380.138 27.4205C380.886 27.4205 381.563 27.3163 382.169 27.108C382.775 26.8902 383.301 26.5729 383.746 26.1562C384.191 25.7396 384.527 25.2235 384.754 24.608L389.555 25.1477C389.252 26.4167 388.675 27.5246 387.822 28.4716C386.98 29.4091 385.9 30.1383 384.584 30.6591C383.268 31.1705 381.762 31.4261 380.067 31.4261ZM408.004 31H402.379L412.62 1.90909H419.126L429.381 31H423.756L415.987 7.875H415.759L408.004 31ZM408.188 19.5938H423.529V23.8267H408.188V19.5938ZM432.986 39.1818V9.18182H438.043V12.7898H438.341C438.606 12.2595 438.98 11.696 439.463 11.0994C439.946 10.4934 440.599 9.97727 441.423 9.55114C442.247 9.11553 443.298 8.89773 444.577 8.89773C446.262 8.89773 447.782 9.3286 449.136 10.1903C450.5 11.0426 451.58 12.3068 452.375 13.983C453.18 15.6496 453.582 17.6951 453.582 20.1193C453.582 22.5152 453.189 24.5511 452.403 26.2273C451.617 27.9034 450.547 29.1818 449.193 30.0625C447.839 30.9432 446.305 31.3835 444.591 31.3835C443.341 31.3835 442.304 31.1752 441.48 30.7585C440.656 30.3419 439.993 29.84 439.491 29.2528C438.999 28.6562 438.616 28.0928 438.341 27.5625H438.128V39.1818H432.986ZM438.028 20.0909C438.028 21.5019 438.227 22.7377 438.625 23.7983C439.032 24.8589 439.615 25.6875 440.372 26.2841C441.139 26.8712 442.067 27.1648 443.156 27.1648C444.293 27.1648 445.244 26.8617 446.011 26.2557C446.778 25.6402 447.356 24.8021 447.744 23.7415C448.142 22.6714 448.341 21.4545 448.341 20.0909C448.341 18.7367 448.147 17.5341 447.759 16.483C447.37 15.4318 446.793 14.608 446.026 14.0114C445.259 13.4148 444.302 13.1165 443.156 13.1165C442.058 13.1165 441.125 13.4053 440.358 13.983C439.591 14.5606 439.009 15.3703 438.611 16.4119C438.223 17.4536 438.028 18.6799 438.028 20.0909ZM457.986 39.1818V9.18182H463.043V12.7898H463.341C463.606 12.2595 463.98 11.696 464.463 11.0994C464.946 10.4934 465.599 9.97727 466.423 9.55114C467.247 9.11553 468.298 8.89773 469.577 8.89773C471.262 8.89773 472.782 9.3286 474.136 10.1903C475.5 11.0426 476.58 12.3068 477.375 13.983C478.18 15.6496 478.582 17.6951 478.582 20.1193C478.582 22.5152 478.189 24.5511 477.403 26.2273C476.617 27.9034 475.547 29.1818 474.193 30.0625C472.839 30.9432 471.305 31.3835 469.591 31.3835C468.341 31.3835 467.304 31.1752 466.48 30.7585C465.656 30.3419 464.993 29.84 464.491 29.2528C463.999 28.6562 463.616 28.0928 463.341 27.5625H463.128V39.1818H457.986ZM463.028 20.0909C463.028 21.5019 463.227 22.7377 463.625 23.7983C464.032 24.8589 464.615 25.6875 465.372 26.2841C466.139 26.8712 467.067 27.1648 468.156 27.1648C469.293 27.1648 470.244 26.8617 471.011 26.2557C471.778 25.6402 472.356 24.8021 472.744 23.7415C473.142 22.6714 473.341 21.4545 473.341 20.0909C473.341 18.7367 473.147 17.5341 472.759 16.483C472.37 15.4318 471.793 14.608 471.026 14.0114C470.259 13.4148 469.302 13.1165 468.156 13.1165C467.058 13.1165 466.125 13.4053 465.358 13.983C464.591 14.5606 464.009 15.3703 463.611 16.4119C463.223 17.4536 463.028 18.6799 463.028 20.0909ZM488.128 1.90909V31H482.986V1.90909H488.128ZM493.415 31V9.18182H498.558V31H493.415ZM496.001 6.08523C495.186 6.08523 494.486 5.81534 493.898 5.27557C493.311 4.72632 493.018 4.06818 493.018 3.30114C493.018 2.52462 493.311 1.86648 493.898 1.3267C494.486 0.777461 495.186 0.50284 496.001 0.50284C496.825 0.50284 497.525 0.777461 498.103 1.3267C498.69 1.86648 498.984 2.52462 498.984 3.30114C498.984 4.06818 498.69 4.72632 498.103 5.27557C497.525 5.81534 496.825 6.08523 496.001 6.08523ZM513.362 31.4261C511.184 31.4261 509.314 30.9479 507.751 29.9915C506.198 29.035 505 27.714 504.158 26.0284C503.324 24.3333 502.908 22.3826 502.908 20.1761C502.908 17.9602 503.334 16.0047 504.186 14.3097C505.038 12.6051 506.241 11.2794 507.794 10.3324C509.357 9.37595 511.203 8.89773 513.334 8.89773C515.105 8.89773 516.672 9.22443 518.036 9.87784C519.409 10.5218 520.502 11.4356 521.317 12.6193C522.131 13.7936 522.595 15.1667 522.709 16.7386H517.794C517.595 15.6875 517.122 14.8116 516.374 14.1108C515.635 13.4006 514.645 13.0455 513.405 13.0455C512.354 13.0455 511.43 13.3295 510.635 13.8977C509.839 14.4564 509.219 15.2614 508.774 16.3125C508.339 17.3636 508.121 18.6231 508.121 20.0909C508.121 21.5777 508.339 22.8561 508.774 23.9261C509.21 24.9867 509.821 25.8059 510.607 26.3835C511.402 26.9517 512.335 27.2358 513.405 27.2358C514.162 27.2358 514.839 27.0937 515.436 26.8097C516.042 26.5161 516.549 26.0947 516.956 25.5455C517.363 24.9962 517.643 24.3286 517.794 23.5426H522.709C522.586 25.0862 522.131 26.4545 521.345 27.6477C520.559 28.8314 519.489 29.7595 518.135 30.4318C516.781 31.0947 515.19 31.4261 513.362 31.4261ZM533.21 31.4403C531.827 31.4403 530.582 31.1941 529.474 30.7017C528.375 30.1998 527.504 29.4612 526.86 28.4858C526.226 27.5104 525.908 26.3078 525.908 24.8778C525.908 23.6468 526.136 22.6288 526.59 21.8239C527.045 21.0189 527.665 20.375 528.451 19.892C529.237 19.4091 530.122 19.0445 531.107 18.7983C532.102 18.5426 533.129 18.358 534.19 18.2443C535.468 18.1117 536.505 17.9934 537.3 17.8892C538.096 17.7756 538.674 17.6051 539.033 17.3778C539.403 17.1411 539.587 16.7765 539.587 16.2841V16.1989C539.587 15.1288 539.27 14.3002 538.636 13.7131C538.001 13.1259 537.087 12.8324 535.894 12.8324C534.635 12.8324 533.636 13.107 532.897 13.6562C532.168 14.2055 531.675 14.8542 531.42 15.6023L526.619 14.9205C526.997 13.5947 527.622 12.4867 528.494 11.5966C529.365 10.697 530.43 10.0246 531.69 9.57955C532.949 9.125 534.341 8.89773 535.866 8.89773C536.917 8.89773 537.963 9.02083 539.005 9.26705C540.047 9.51326 540.998 9.92045 541.86 10.4886C542.722 11.0473 543.413 11.8097 543.934 12.7756C544.464 13.7415 544.729 14.9489 544.729 16.3977V31H539.786V28.0028H539.616C539.303 28.6089 538.863 29.1771 538.295 29.7074C537.736 30.2282 537.031 30.6496 536.178 30.9716C535.335 31.2841 534.346 31.4403 533.21 31.4403ZM534.545 27.6619C535.577 27.6619 536.472 27.4583 537.229 27.0511C537.987 26.6345 538.569 26.0852 538.977 25.4034C539.393 24.7216 539.602 23.9782 539.602 23.1733V20.6023C539.441 20.7348 539.166 20.858 538.778 20.9716C538.399 21.0852 537.973 21.1847 537.499 21.2699C537.026 21.3551 536.557 21.4309 536.093 21.4972C535.629 21.5634 535.227 21.6203 534.886 21.6676C534.119 21.7718 533.432 21.9422 532.826 22.179C532.22 22.4157 531.742 22.7472 531.391 23.1733C531.041 23.59 530.866 24.1297 530.866 24.7926C530.866 25.7396 531.211 26.4545 531.903 26.9375C532.594 27.4205 533.475 27.6619 534.545 27.6619ZM560.795 9.18182V13.1591H548.252V9.18182H560.795ZM551.349 3.95455H556.491V24.4375C556.491 25.1288 556.595 25.6591 556.803 26.0284C557.021 26.3883 557.305 26.6345 557.656 26.767C558.006 26.8996 558.394 26.9659 558.82 26.9659C559.142 26.9659 559.436 26.9422 559.701 26.8949C559.976 26.8475 560.184 26.8049 560.326 26.767L561.192 30.7869C560.918 30.8816 560.525 30.9858 560.013 31.0994C559.512 31.2131 558.896 31.2794 558.167 31.2983C556.879 31.3362 555.719 31.142 554.687 30.7159C553.655 30.2803 552.835 29.608 552.229 28.6989C551.633 27.7898 551.339 26.6534 551.349 25.2898V3.95455ZM565.095 31V9.18182H570.237V31H565.095ZM567.68 6.08523C566.866 6.08523 566.165 5.81534 565.578 5.27557C564.991 4.72632 564.697 4.06818 564.697 3.30114C564.697 2.52462 564.991 1.86648 565.578 1.3267C566.165 0.777461 566.866 0.50284 567.68 0.50284C568.504 0.50284 569.205 0.777461 569.783 1.3267C570.37 1.86648 570.663 2.52462 570.663 3.30114C570.663 4.06818 570.37 4.72632 569.783 5.27557C569.205 5.81534 568.504 6.08523 567.68 6.08523ZM585.042 31.4261C582.911 31.4261 581.065 30.9574 579.502 30.0199C577.94 29.0824 576.728 27.7708 575.866 26.0852C575.013 24.3996 574.587 22.4299 574.587 20.1761C574.587 17.9223 575.013 15.9479 575.866 14.2528C576.728 12.5578 577.94 11.2415 579.502 10.304C581.065 9.36648 582.911 8.89773 585.042 8.89773C587.173 8.89773 589.019 9.36648 590.582 10.304C592.144 11.2415 593.352 12.5578 594.204 14.2528C595.066 15.9479 595.496 17.9223 595.496 20.1761C595.496 22.4299 595.066 24.3996 594.204 26.0852C593.352 27.7708 592.144 29.0824 590.582 30.0199C589.019 30.9574 587.173 31.4261 585.042 31.4261ZM585.07 27.3068C586.226 27.3068 587.192 26.9896 587.968 26.3551C588.745 25.7112 589.322 24.8494 589.701 23.7699C590.089 22.6903 590.283 21.4877 590.283 20.1619C590.283 18.8267 590.089 17.6193 589.701 16.5398C589.322 15.4508 588.745 14.5843 587.968 13.9403C587.192 13.2964 586.226 12.9744 585.07 12.9744C583.887 12.9744 582.902 13.2964 582.116 13.9403C581.339 14.5843 580.757 15.4508 580.369 16.5398C579.99 17.6193 579.8 18.8267 579.8 20.1619C579.8 21.4877 579.99 22.6903 580.369 23.7699C580.757 24.8494 581.339 25.7112 582.116 26.3551C582.902 26.9896 583.887 27.3068 585.07 27.3068ZM605.003 18.2159V31H599.861V9.18182H604.776V12.8892H605.031C605.533 11.6676 606.333 10.697 607.432 9.97727C608.54 9.25758 609.908 8.89773 611.537 8.89773C613.043 8.89773 614.354 9.2197 615.472 9.86364C616.598 10.5076 617.47 11.4403 618.085 12.6619C618.71 13.8835 619.018 15.3655 619.009 17.108V31H613.866V17.9034C613.866 16.4451 613.488 15.304 612.73 14.4801C611.982 13.6562 610.945 13.2443 609.619 13.2443C608.72 13.2443 607.92 13.4432 607.219 13.8409C606.527 14.2292 605.983 14.7926 605.585 15.5312C605.197 16.2699 605.003 17.1648 605.003 18.2159Z" fill="#A8A8B3"/>
</svg>
